<svg xmlns="http://www.w3.org/2000/svg" width="1600" height="900" viewBox="0 0 1600 900">
  <defs>
    <marker id="arrow-gray" viewBox="0 0 10 10" refX="8.5" refY="5" markerWidth="8" markerHeight="8" orient="auto-start-reverse">
      <path d="M 0 0 L 10 5 L 0 10 z" fill="#7A869A"/>
    </marker>
    <marker id="arrow-purple" viewBox="0 0 10 10" refX="8.5" refY="5" markerWidth="8" markerHeight="8" orient="auto-start-reverse">
      <path d="M 0 0 L 10 5 L 0 10 z" fill="#7E57C2"/>
    </marker>
    <marker id="arrow-green" viewBox="0 0 12 10" refX="10.5" refY="5" markerWidth="10" markerHeight="6" orient="auto-start-reverse">
      <path d="M 0 2.2 L 12 5 L 0 7.8 z" fill="#70AD47"/>
    </marker>
    <marker id="arrow-red" viewBox="0 0 10 10" refX="8.5" refY="5" markerWidth="8" markerHeight="8" orient="auto-start-reverse">
      <path d="M 0 0 L 10 5 L 0 10 z" fill="#C00000"/>
    </marker>
    <style>
      .cn {
        font-family: "Noto Serif CJK SC", "Source Han Serif SC", "SimSun", serif;
      }
      .layer-label {
        font-size: 22px;
        font-weight: 700;
        fill: #2F3B52;
      }
      .node-label {
        font-size: 24px;
        font-weight: 700;
        fill: #2F3B52;
      }
      .small-label {
        font-size: 20px;
        font-weight: 600;
        fill: #5F6B7A;
      }
      .dim-label {
        font-size: 22px;
        font-weight: 700;
        fill: #2F5D1F;
      }
      .addr-label {
        font-size: 18px;
        font-weight: 700;
        fill: #C00000;
      }
      .bh-label {
        font-size: 16px;
        font-weight: 700;
        fill: #6A3906;
      }
    </style>
  </defs>

  <rect x="0" y="0" width="1600" height="900" fill="#FFFFFF"/>

  <g>
    <rect x="25" y="40" width="1550" height="220" fill="#EDF4FB" stroke="#4F81BD" stroke-width="3"/>
    <rect x="45" y="62" width="180" height="48" fill="#DCEAF7" stroke="#4F81BD" stroke-width="2"/>
    <text x="135" y="94" text-anchor="middle" class="cn layer-label">Page Cache 层</text>
    <rect x="280" y="108" width="1180" height="122" fill="#FFFFFF" stroke="#7FB3E6" stroke-width="2"/>

    <rect x="325" y="142" width="160" height="54" fill="#DCEAF7" stroke="#4F81BD" stroke-width="2"/>
    <text x="405" y="175" text-anchor="middle" class="cn node-label">page</text>

    <rect x="925" y="136" width="370" height="66" fill="#DCEAF7" stroke="#4F81BD" stroke-width="2"/>
    <text x="1110" y="177" text-anchor="middle" class="cn node-label">large folio</text>
  </g>

  <g>
    <rect x="25" y="300" width="1550" height="220" fill="#FEF3ED" stroke="#C55A11" stroke-width="3"/>
    <rect x="45" y="322" width="200" height="48" fill="#FCE4D6" stroke="#C55A11" stroke-width="2"/>
    <text x="145" y="354" text-anchor="middle" class="cn layer-label">文件系统块层</text>
    <rect x="280" y="368" width="1180" height="122" fill="#FFFFFF" stroke="#E59B63" stroke-width="2"/>

    <rect x="340" y="404" width="150" height="52" fill="#FCE4D6" stroke="#C55A11" stroke-width="2"/>
    <text x="415" y="437" text-anchor="middle" class="cn node-label">block</text>

    <rect x="925" y="392" width="370" height="70" fill="#E2F0D9" stroke="#70AD47" stroke-width="2"/>
    <text x="1110" y="434" text-anchor="middle" class="cn node-label">iomap</text>

    <line x1="405" y1="196" x2="405" y2="404" stroke="#7A869A" stroke-width="3" marker-end="url(#arrow-gray)"/>
    <text x="448" y="318" class="cn small-label">块地址</text>

    <line x1="1110" y1="202" x2="1110" y2="392" stroke="#7A869A" stroke-width="3" marker-end="url(#arrow-gray)"/>

    <line x1="925" y1="462" x2="925" y2="476" stroke="#70AD47" stroke-width="2"/>
    <line x1="1295" y1="462" x2="1295" y2="476" stroke="#70AD47" stroke-width="2"/>
    <line x1="925" y1="476" x2="1295" y2="476" stroke="#70AD47" stroke-width="3" marker-start="url(#arrow-green)" marker-end="url(#arrow-green)"/>
    <line x1="905" y1="476" x2="925" y2="476" stroke="#C00000" stroke-width="2" marker-end="url(#arrow-red)"/>
    <text x="881" y="482" text-anchor="middle" class="cn addr-label">addr</text>
    <text x="1110" y="482" text-anchor="middle" class="cn dim-label">length</text>
  </g>

  <g>
    <rect x="25" y="560" width="1550" height="260" fill="#F6F1FB" stroke="#7E57C2" stroke-width="3"/>
    <rect x="45" y="582" width="140" height="48" fill="#ECE6FA" stroke="#7E57C2" stroke-width="2"/>
    <text x="115" y="614" text-anchor="middle" class="cn layer-label">Block 层</text>
    <rect x="280" y="630" width="1180" height="140" fill="#FFFFFF" stroke="#9C77DA" stroke-width="2"/>

    <line x1="415" y1="456" x2="415" y2="610" stroke="#7A869A" stroke-width="3"/>
    <line x1="292" y1="610" x2="512" y2="610" stroke="#7A869A" stroke-width="3"/>
    <line x1="322" y1="610" x2="322" y2="645" stroke="#7A869A" stroke-width="2.5" marker-end="url(#arrow-gray)"/>
    <line x1="378" y1="610" x2="378" y2="645" stroke="#7A869A" stroke-width="2.5" marker-end="url(#arrow-gray)"/>
    <line x1="434" y1="610" x2="434" y2="645" stroke="#7A869A" stroke-width="2.5" marker-end="url(#arrow-gray)"/>
    <line x1="490" y1="610" x2="490" y2="645" stroke="#7A869A" stroke-width="2.5" marker-end="url(#arrow-gray)"/>

    <rect x="300" y="645" width="44" height="110" fill="#FCE4D6" stroke="#C55A11" stroke-width="2"/>
    <rect x="356" y="645" width="44" height="110" fill="#FCE4D6" stroke="#C55A11" stroke-width="2"/>
    <rect x="412" y="645" width="44" height="110" fill="#FCE4D6" stroke="#C55A11" stroke-width="2"/>
    <rect x="468" y="645" width="44" height="110" fill="#FCE4D6" stroke="#C55A11" stroke-width="2"/>

    <text x="322" y="688" text-anchor="middle" class="cn bh-label">
      <tspan x="322" dy="0">buffer</tspan>
      <tspan x="322" dy="22">head</tspan>
    </text>
    <text x="378" y="688" text-anchor="middle" class="cn bh-label">
      <tspan x="378" dy="0">buffer</tspan>
      <tspan x="378" dy="22">head</tspan>
    </text>
    <text x="434" y="688" text-anchor="middle" class="cn bh-label">
      <tspan x="434" dy="0">buffer</tspan>
      <tspan x="434" dy="22">head</tspan>
    </text>
    <text x="490" y="688" text-anchor="middle" class="cn bh-label">
      <tspan x="490" dy="0">buffer</tspan>
      <tspan x="490" dy="22">head</tspan>
    </text>

    <rect x="925" y="655" width="370" height="74" fill="#ECE6FA" stroke="#7E57C2" stroke-width="2"/>
    <text x="1110" y="700" text-anchor="middle" class="cn node-label" fill="#4C3A72">bio</text>

    <line x1="1110" y1="462" x2="1110" y2="655" stroke="#7E57C2" stroke-width="3" marker-end="url(#arrow-purple)"/>
  </g>
</svg>
